<svg width="1112" height="135" viewBox="0 0 1112 135" fill="none" xmlns="http://www.w3.org/2000/svg">
<path d="M0 132.353V0H60.5461C72.6554 0 83.0617 1.95378 91.7652 5.86135C100.595 9.76891 107.406 15.4412 112.2 22.8781C116.993 30.1891 119.389 38.8866 119.389 48.9706C119.389 58.9286 116.993 67.563 112.2 74.8739C107.406 82.1849 100.595 87.8571 91.7652 91.8908C83.0617 95.7983 72.6554 97.7521 60.5461 97.7521H20.8127L37.4629 81.4916V132.353H0ZM37.4629 85.4622L20.8127 68.2563H58.2757C66.0962 68.2563 71.8985 66.5546 75.6827 63.1513C79.5929 59.7479 81.5481 55.021 81.5481 48.9706C81.5481 42.7941 79.5929 38.0042 75.6827 34.6008C71.8985 31.1975 66.0962 29.4958 58.2757 29.4958H20.8127L37.4629 12.2899V85.4622Z" fill="#102549"/>
<path d="M187.372 135C167.821 135 152.558 129.643 141.584 118.929C130.61 108.214 125.123 93.0252 125.123 73.3613V0H162.586V72.2269C162.586 83.5714 164.794 91.7017 169.208 96.6176C173.749 101.534 179.93 103.992 187.751 103.992C195.571 103.992 201.689 101.534 206.104 96.6176C210.519 91.7017 212.726 83.5714 212.726 72.2269V0H249.621V73.3613C249.621 93.0252 244.134 108.214 233.16 118.929C222.186 129.643 206.924 135 187.372 135Z" fill="#102549"/>
<path d="M261.756 132.353V0H292.596L365.63 88.1092H351.061V0H387.767V132.353H356.927L283.893 44.2437H298.462V132.353H261.756Z" fill="#102549"/>
<path d="M400.948 132.353V0H463.576C478.208 0 491.074 2.71009 502.174 8.13026C513.274 13.5504 521.914 21.1765 528.095 31.0084C534.402 40.8403 537.555 52.563 537.555 66.1765C537.555 79.6639 534.402 91.3866 528.095 101.345C521.914 111.176 513.274 118.803 502.174 124.223C491.074 129.643 478.208 132.353 463.576 132.353H400.948ZM438.411 102.479H462.062C469.63 102.479 476.189 101.092 481.739 98.3193C487.416 95.4202 491.83 91.2605 494.984 85.8403C498.137 80.2941 499.714 73.7395 499.714 66.1765C499.714 58.4874 498.137 51.9328 494.984 46.5126C491.83 41.0924 487.416 36.9958 481.739 34.2227C476.189 31.3235 469.63 29.8739 462.062 29.8739H438.411V102.479Z" fill="#102549"/>
<path d="M544.021 132.353V0H574.862L629.731 90H613.46L666.816 0H697.657L698.035 132.353H663.599L663.221 52.374H669.086L629.164 119.307H612.514L571.456 52.374H578.646V132.353H544.021Z" fill="#102549"/>
<path d="M695.405 132.353L753.87 0H790.766L849.42 132.353H810.443L764.655 18.3403H779.413L733.625 132.353H695.405ZM727.381 106.639L737.031 79.0336H801.74L811.389 106.639H727.381Z" fill="#102549"/>
<path d="M846.796 132.353V0H877.637L950.67 88.1092H936.101V0H972.807V132.353H941.967L868.933 44.2437H883.502V132.353H846.796Z" fill="#102549"/>
<path d="M985.988 132.353V0H1016.83L1089.86 88.1092H1075.29V0H1112V132.353H1081.16L1008.13 44.2437H1022.69V132.353H985.988Z" fill="#102549"/>
</svg>
